<svg width="32" height="33" viewBox="0 0 32 33" fill="none" xmlns="http://www.w3.org/2000/svg">
<g clip-path="url(#clip0_2_598)">
<g clip-path="url(#clip1_2_598)">
<g clip-path="url(#clip2_2_598)">
<g clip-path="url(#clip3_2_598)">
<path d="M10.6705 16.6139C11.0644 16.5323 11.4761 16.3536 11.8644 16.0732C12.981 15.2656 13.4766 13.9393 12.9702 13.1095C12.4196 12.207 10.9134 12.2676 9.75601 13.2949C8.64922 14.2505 8.41309 15.249 8.41309 16.2984C8.41309 17.0399 8.65025 18.3639 10.099 19.5138C10.7831 18.9852 11.5986 18.5504 12.5243 18.236L12.5365 18.2315C11.8253 17.9351 10.8981 17.3501 10.6705 16.6139ZM10.4918 14.0617C10.4918 13.7517 10.7389 13.5024 11.0436 13.5024C11.348 13.5024 11.5953 13.7528 11.5953 14.0629C11.5953 14.373 11.348 14.6223 11.0436 14.6223C10.7389 14.6223 10.4918 14.3718 10.4918 14.0617Z" fill="#0061FF"/>
</g>
</g>
<g clip-path="url(#clip4_2_598)">
<g clip-path="url(#clip5_2_598)">
<path d="M23.6074 16.2996C23.6041 15.2491 23.3691 14.2506 22.2613 13.295C21.1048 12.2688 19.5976 12.2059 19.047 13.1097C18.5416 13.9394 19.0359 15.2657 20.1525 16.0733C20.541 16.3537 20.9526 16.5324 21.3465 16.614C21.2097 17.0565 20.7937 17.5067 20.1593 17.8863C19.2869 18.4069 18.8157 18.4713 13.2341 20.3248C11.1686 21.0266 9.93945 22.4212 9.93945 24.0554C9.93945 25.2195 10.5341 26.1177 11.3605 26.7754C11.8803 26.2402 12.5292 25.7757 13.2872 25.4038C12.4144 24.9625 12.1451 24.6281 12.1451 24.0554C12.1451 23.1102 14.0344 22.5698 14.906 22.2823V24.6745L17.1128 23.6902V22.2834C17.9858 22.5725 19.8702 23.1122 19.8702 24.0554C19.8702 25.6247 15.3767 26.5501 13.4649 27.8688C12.537 28.5121 12.038 29.3298 12.038 30.2908C12.038 30.8425 12.1021 31.5266 13.0709 32.2063C13.3456 32.4258 13.7272 32.1052 13.5488 31.7969C12.9087 30.5159 13.5884 29.8759 14.9081 29.322V31.1735C14.9081 31.7826 15.4025 32.2769 16.0115 32.2769C16.6206 32.2769 17.115 31.7826 17.115 31.1735V29.3231C18.3827 29.8549 19.1806 30.6063 18.471 31.7969C18.2952 32.0993 18.6697 32.4285 18.9477 32.2063C19.8856 31.4957 19.9596 30.8866 19.9596 30.3052C19.9596 29.4104 19.4697 28.542 18.5406 27.8766C20.4186 27.198 22.0803 26.0559 22.0803 24.0576C22.0803 22.6773 21.2032 21.4679 19.6871 20.7022C20.3953 20.4473 20.7517 20.2762 21.2251 19.9938C23.2985 18.7546 23.6074 17.147 23.6074 16.2996ZM20.9748 14.6224C20.6701 14.6224 20.4231 14.3719 20.4231 14.0618C20.4231 13.7518 20.6701 13.5013 20.9748 13.5013C21.2792 13.5013 21.5265 13.7518 21.5265 14.0618C21.5265 14.3719 21.2792 14.6224 20.9748 14.6224Z" fill="#0061FF"/>
</g>
</g>
<g clip-path="url(#clip6_2_598)">
<g clip-path="url(#clip7_2_598)">
<path d="M31.4476 2.48826H23.8908C22.4084 2.48826 21.296 3.14355 20.339 4.10062C19.2993 5.14031 18.7587 7.45148 17.1032 7.45148V4.38689C17.7601 4.00462 18.2066 3.30099 18.2066 2.48612C18.2066 1.26733 17.2186 0.279297 15.9998 0.279297C14.7809 0.279297 13.793 1.26733 13.793 2.48612C13.793 3.30092 14.2394 4.00456 14.8964 4.38689V17.5372C15.5774 17.3199 16.3248 17.0805 17.1032 16.8306V11.3035C17.5819 11.0633 17.9682 10.675 18.2051 10.1944C18.5889 10.8503 19.3185 11.3156 20.1318 11.3156C20.9567 11.3156 21.6673 10.8576 22.0459 10.1873C23.3386 11.48 25.7413 11.5049 27.0339 10.2123L25.1588 8.33717L26.019 8.69351C27.708 9.39314 29.6444 8.59103 30.3441 6.90198L27.6803 5.79857C30.2609 5.7985 31.4476 4.17917 31.4476 2.48826Z" fill="#0061FF"/>
</g>
</g>
<g clip-path="url(#clip8_2_598)">
<g clip-path="url(#clip9_2_598)">
<path d="M11.6604 4.10064C10.7034 3.14357 9.59091 2.48828 8.10848 2.48828H0.551758C0.551758 4.17912 1.73841 5.79852 4.31902 5.79852L1.65517 6.90193C2.35487 8.59098 4.29129 9.39302 5.98034 8.69346L6.84052 8.33713L4.96541 10.2122C6.25806 11.505 8.66074 11.4801 9.95338 10.1873C10.332 10.8576 11.0427 11.3156 11.8675 11.3156C11.8757 11.3156 11.8838 11.3155 11.8919 11.3154C12.9701 11.3032 13.7942 10.3293 13.7942 9.2511V7.03117C12.9245 6.31761 12.4264 4.86669 11.6604 4.10064Z" fill="#0061FF"/>
</g>
</g>
</g>
</g>
<defs>
<clipPath id="clip0_2_598">
<rect width="32" height="32" fill="white" transform="translate(0 0.279297)"/>
</clipPath>
<clipPath id="clip1_2_598">
<rect width="32" height="32" fill="white" transform="translate(0 0.279297)"/>
</clipPath>
<clipPath id="clip2_2_598">
<rect width="4.75568" height="7.03818" fill="white" transform="translate(8.41309 12.4756)"/>
</clipPath>
<clipPath id="clip3_2_598">
<rect width="4.75568" height="7.03818" fill="white" transform="translate(8.41309 12.4756)"/>
</clipPath>
<clipPath id="clip4_2_598">
<rect width="13.668" height="19.8036" fill="white" transform="translate(9.93945 12.4756)"/>
</clipPath>
<clipPath id="clip5_2_598">
<rect width="13.668" height="19.8036" fill="white" transform="translate(9.93945 12.4756)"/>
</clipPath>
<clipPath id="clip6_2_598">
<rect width="17.6546" height="17.2579" fill="white" transform="translate(13.793 0.279297)"/>
</clipPath>
<clipPath id="clip7_2_598">
<rect width="17.6546" height="17.2579" fill="white" transform="translate(13.793 0.279297)"/>
</clipPath>
<clipPath id="clip8_2_598">
<rect width="13.2425" height="8.8273" fill="white" transform="translate(0.551758 2.48828)"/>
</clipPath>
<clipPath id="clip9_2_598">
<rect width="13.2425" height="8.8273" fill="white" transform="translate(0.551758 2.48828)"/>
</clipPath>
</defs>
</svg>
