<svg width="32" height="33" viewBox="0 0 32 33" fill="none" xmlns="http://www.w3.org/2000/svg">
<g clip-path="url(#clip0_2_618)">
<g clip-path="url(#clip1_2_618)">
<path d="M6.34806 32.2796H25.6513C26.8 32.2796 27.7562 31.401 27.7562 30.3214V6.90809C27.7562 5.8282 26.8 4.94043 25.6513 4.94043H22.4692V6.7282C22.4739 7.03853 22.229 7.29532 21.919 7.30565H10.0426C9.72632 7.29804 9.47088 7.04451 9.46056 6.7282V4.94043H6.34806C5.19941 4.94043 4.24316 5.8282 4.24316 6.90809V30.3214C4.24316 31.401 5.19941 32.2796 6.34806 32.2796ZM10.6432 14.3317C10.6432 14.0244 10.8923 13.7752 11.1997 13.7752H14.0519V10.923C14.0519 10.6157 14.301 10.3665 14.6084 10.3665H17.391C17.6983 10.3665 17.9475 10.6157 17.9475 10.923V13.7752H20.7997C21.107 13.7752 21.3562 14.0244 21.3562 14.3317V17.1143C21.3562 17.4217 21.107 17.6709 20.7997 17.6709H17.9475V20.523C17.9475 20.8304 17.6983 21.0796 17.391 21.0796H14.6084C14.301 21.0796 14.0519 20.8304 14.0519 20.523V17.6709H11.1997C10.8923 17.6709 10.6432 17.4217 10.6432 17.1143V14.3317ZM10.8698 23.9317H21.1296C21.4372 23.9317 21.6861 24.1809 21.6861 24.4883C21.6861 24.7956 21.4372 25.0448 21.1296 25.0448H10.8698C10.5622 25.0448 10.3133 24.7956 10.3133 24.4883C10.3133 24.1809 10.5622 23.9317 10.8698 23.9317ZM8.78284 26.7143H23.2165C23.5241 26.7143 23.7731 26.9635 23.7731 27.2709C23.7731 27.5782 23.5241 27.8274 23.2165 27.8274H8.78284C8.47523 27.8274 8.22632 27.5782 8.22632 27.2709C8.22632 26.9635 8.47523 26.7143 8.78284 26.7143Z" fill="#0061FF"/>
<path d="M21.3568 2.43582H18.7525C18.4905 2.43555 18.2639 2.25267 18.2087 1.99642C17.9935 1.00185 17.0489 0.279298 15.9625 0.279298H15.9557C14.8984 0.278211 13.9748 0.9937 13.7117 2.01761C13.6484 2.26354 13.4267 2.43555 13.1726 2.43582H10.5742V6.19234H21.3568V2.43582Z" fill="#0061FF"/>
<path d="M15.1655 17.1143V19.9664H16.8351V17.1143C16.8351 16.8069 17.0843 16.5578 17.3916 16.5578H20.2438V14.8882H17.3916C17.0843 14.8882 16.8351 14.639 16.8351 14.3317V11.4795H15.1655V14.3317C15.1655 14.639 14.9163 14.8882 14.609 14.8882H11.7568V16.5578H14.609C14.9163 16.5578 15.1655 16.8069 15.1655 17.1143Z" fill="#0061FF"/>
</g>
</g>
<defs>
<clipPath id="clip0_2_618">
<rect width="32" height="32" fill="white" transform="translate(0 0.279297)"/>
</clipPath>
<clipPath id="clip1_2_618">
<rect width="32" height="32" fill="white" transform="translate(0 0.279297)"/>
</clipPath>
</defs>
</svg>
