<svg width="32" height="33" viewBox="0 0 32 33" fill="none" xmlns="http://www.w3.org/2000/svg">
<g clip-path="url(#clip0_2_588)">
<g clip-path="url(#clip1_2_588)">
<g clip-path="url(#clip2_2_588)">
<path d="M15.9909 4.49729C9.01587 -1.60337 0.14723 3.75685 0.00180337 11.0235C-0.0352563 12.8754 0.499328 14.6793 1.56343 16.3424H8.46066L9.68744 14.2977C10.0437 13.704 10.9057 13.6849 11.2821 14.2767L13.8705 18.3441L17.6435 10.379C17.9726 9.68402 18.9532 9.66196 19.3161 10.3359L22.5503 16.3424H30.4184C36.2468 7.23309 24.7279 -3.14431 15.9909 4.49729V4.49729Z" fill="#0061FF"/>
<path d="M21.1656 17.7246L18.5448 12.8574L14.8387 20.6812C14.5234 21.3468 13.5961 21.4046 13.2007 20.7832L10.5152 16.5633L9.79574 17.7625C9.62631 18.0448 9.32121 18.2176 8.99192 18.2176H3.04688C3.23324 18.4126 2.24 17.4214 15.3302 30.4438C15.6958 30.8076 16.2868 30.8076 16.6525 30.4438C29.5412 17.6217 28.7498 18.4122 28.9358 18.2176H21.9909C21.646 18.2176 21.329 18.0283 21.1656 17.7246V17.7246Z" fill="#0061FF"/>
</g>
</g>
</g>
<defs>
<clipPath id="clip0_2_588">
<rect width="32" height="32" fill="white" transform="translate(0 0.279297)"/>
</clipPath>
<clipPath id="clip1_2_588">
<rect width="32" height="32" fill="white" transform="translate(0 0.279297)"/>
</clipPath>
<clipPath id="clip2_2_588">
<rect width="32" height="28.8744" fill="white" transform="translate(0 1.8418)"/>
</clipPath>
</defs>
</svg>
